<?xml version="1.0" encoding="UTF-8"?>
<svg id="Layer_1" data-name="Layer 1" xmlns="http://www.w3.org/2000/svg" version="1.1" viewBox="0 0 343.16 252.31">
  <defs>
    <style>
      .cls-1 {
        fill: #231f20;
      }

      .cls-1, .cls-2, .cls-3 {
        stroke-width: 0px;
      }

      .cls-4 {
        fill: #fff;
        stroke: #fff;
        stroke-miterlimit: 10;
        stroke-width: 4px;
      }

      .cls-2 {
        fill: #f9ed32;
      }

      .cls-3 {
        fill: #27aae1;
      }
    </style>
  </defs>
  <g>
    <rect class="cls-4" x="75.05" y="22.6" width="13.18" height="16.41"/>
    <path class="cls-4" d="M88.04,59.81h-12.79v95.02h.13l-16.38,74.68-16.18-74.68h.02c7.36,0,11.04-3.68,11.04-11.04v-17.97c0-4.36-1.6-7.81-4.79-10.35l-34.28-27.83v-16.6h26.27v18.75h12.6v-18.95c0-7.36-3.68-11.04-11.04-11.04H13.23c-7.36,0-11.04,3.68-11.04,11.04v15.82c0,4.17,1.63,7.55,4.88,10.16l33.98,27.83v18.95H14.79v-21.39H2v21.58c0,7.36,3.68,11.04,11.04,11.04h16.4l23.6,95.09h11.82l23.54-95.21h-.35V59.81Z"/>
    <path class="cls-4" d="M156.69,154.83h31.25c7.29,0,10.94-3.68,10.94-11.04v-17.18h-12.6v17.38h-27.93v-34.37h36.13l4.4-4.59v-34.18c0-7.36-3.65-11.04-10.94-11.04h-31.25c-7.29,0-10.94,3.68-10.94,11.04v72.94c0,7.36,3.65,11.04,10.94,11.04Z"/>
    <path class="cls-4" d="M259.33,59.22c-3.45,0-7.78.4-12.99,1.18-4.36.71-8.69,1.4-12.99,2.05v-2.64h-12.99v94.89h-21.33c-5.8,0-10.61,1.94-14.45,5.81-3.85,3.88-5.76,8.74-5.76,14.6v55.57c0,5.6,1.69,10.27,5.07,14.01,3.39,3.75,7.85,5.62,13.38,5.62,1.5,0,9.21-1.07,23.15-3.22v2.63h12.89v-94.89h.04v-82.62l23.93-.78v19.63h12.79v-21.19c0-7.1-3.58-10.65-10.74-10.65Z"/>
    <path class="cls-4" d="M330.13,59.81h-32.62c-7.29,0-10.94,3.68-10.94,11.04v72.94c0,7.36,3.65,11.04,10.94,11.04h32.62c7.35,0,11.03-3.68,11.03-11.04v-72.94c0-7.36-3.68-11.04-11.03-11.04Z"/>
    <path class="cls-4" d="M147.08,154.7h-23.4V2h-12.79v152.83h2.82c-5.87.68-8.82,4.31-8.82,10.91v16.01h12.6v-16.21h27.93v28.62h-30.57c-7.36,0-11.03,3.64-11.03,10.93v34.67c0,7.03,3.54,10.55,10.64,10.55,3.84,0,8.95-.39,15.33-1.17,5.14-.65,10.29-1.34,15.43-2.05v2.63h12.79v-83.98c0-7.36-3.64-11.04-10.93-11.04Z"/>
  </g>
  <g>
    <rect class="cls-1" x="75.05" y="22.6" width="13.18" height="16.41"/>
    <path class="cls-1" d="M88.04,59.81h-12.79v95.02h.13l-16.38,74.68-16.18-74.68h.02c7.36,0,11.04-3.68,11.04-11.04v-17.97c0-4.36-1.6-7.81-4.79-10.35l-34.28-27.83v-16.6h26.27v18.75h12.6v-18.95c0-7.36-3.68-11.04-11.04-11.04H13.23c-7.36,0-11.04,3.68-11.04,11.04v15.82c0,4.17,1.63,7.55,4.88,10.16l33.98,27.83v18.95H14.79v-21.39H2v21.58c0,7.36,3.68,11.04,11.04,11.04h16.4l23.6,95.09h11.82l23.54-95.21h-.35V59.81Z"/>
    <path class="cls-1" d="M194.48,109.62l4.4-4.59v-34.18c0-7.36-3.65-11.04-10.94-11.04h-31.25c-7.29,0-10.94,3.68-10.94,11.04v72.94c0,7.36,3.65,11.04,10.94,11.04h31.25c7.29,0,10.94-3.68,10.94-11.04v-17.18h-12.6v17.38h-27.93v-34.37h36.13ZM158.35,70.65h27.93v28.61h-27.93v-28.61Z"/>
    <rect class="cls-2" x="158.35" y="70.65" width="27.93" height="28.61"/>
    <path class="cls-1" d="M259.33,59.22c-3.45,0-7.78.4-12.99,1.18-4.36.71-8.69,1.4-12.99,2.05v-2.64h-12.99v94.89h-21.33c-5.8,0-10.61,1.94-14.45,5.81-3.85,3.88-5.76,8.74-5.76,14.6v55.57c0,5.6,1.69,10.27,5.07,14.01,3.39,3.75,7.85,5.62,13.38,5.62,1.5,0,9.21-1.07,23.15-3.22v2.63h12.89v-94.89h.04v-82.62l23.93-.78v19.63h12.79v-21.19c0-7.1-3.58-10.65-10.74-10.65ZM220.42,237.91c-10.29.65-16.28.97-17.97.97-7.16,0-10.74-3.64-10.74-10.93v-50.79c0-7.35,3.58-11.03,10.74-11.03h17.97v71.78Z"/>
    <path class="cls-3" d="M220.42,166.13v71.78c-10.29.65-16.28.97-17.97.97-7.16,0-10.74-3.64-10.74-10.93v-50.79c0-7.35,3.58-11.03,10.74-11.03h17.97Z"/>
    <path class="cls-1" d="M330.13,59.81h-32.62c-7.29,0-10.94,3.68-10.94,11.04v72.94c0,7.36,3.65,11.04,10.94,11.04h32.62c7.35,0,11.03-3.68,11.03-11.04v-72.94c0-7.36-3.68-11.04-11.03-11.04ZM328.17,143.4h-28.61v-72.16h28.61v72.16Z"/>
    <rect class="cls-2" x="299.56" y="71.24" width="28.61" height="72.16"/>
    <path class="cls-1" d="M147.08,154.7h-23.4V2h-12.79v152.83h2.82c-5.87.68-8.82,4.31-8.82,10.91v16.01h12.6v-16.21h27.93v28.62h-30.57c-7.36,0-11.03,3.64-11.03,10.93v34.67c0,7.03,3.54,10.55,10.64,10.55,3.84,0,8.95-.39,15.33-1.17,5.14-.65,10.29-1.34,15.43-2.05v2.63h12.79v-83.98c0-7.36-3.64-11.04-10.93-11.04ZM145.42,237.91l-29.01.58v-34.18h29.01v33.6Z"/>
    <polygon class="cls-3" points="145.42 204.31 145.42 237.91 116.41 238.49 116.41 204.31 145.42 204.31"/>
  </g>
</svg>