<?xml version="1.0" encoding="UTF-8"?>
<svg id="Layer_1" data-name="Layer 1" xmlns="http://www.w3.org/2000/svg" version="1.1" viewBox="0 0 362.1 255.7">
  <defs>
    <style>
      .cls-1 {
        fill: #27aae1;
      }

      .cls-1, .cls-2, .cls-3 {
        stroke-width: 0px;
      }

      .cls-4 {
        fill: #fff;
        stroke: #fff;
        stroke-miterlimit: 10;
        stroke-width: 4px;
      }

      .cls-2 {
        fill: #231f20;
      }

      .cls-3 {
        fill: #f9ed32;
      }
    </style>
  </defs>
  <rect class="cls-4" x="76.3" y="24.2" width="13.2" height="16.4"/>
  <path class="cls-4" d="M89.3,61.4h-12.8v95h.1l-16.4,74.7-16.2-74.7h0c7.4,0,11-3.7,11-11v-18c0-4.4-1.6-7.8-4.8-10.3l-34.3-27.8v-16.6h26.3v18.8h12.6v-19c0-7.4-3.7-11-11-11H14.5c-7.4,0-11,3.7-11,11v15.8c0,4.2,1.6,7.5,4.9,10.2l34,27.8v19h-26.3v-21.4H3.2v21.6c0,7.4,3.7,11,11,11h16.4l23.6,95.1h11.8l23.5-95.2h-.4V61.4Z"/>
  <path class="cls-4" d="M157.9,156.4h31.2c7.3,0,10.9-3.7,10.9-11v-17.2h-12.6v17.4h-27.9v-34.4h36.1l4.4-4.6v-34.2c0-7.4-3.6-11-10.9-11h-31.2c-7.3,0-10.9,3.7-10.9,11v72.9c0,7.4,3.7,11,10.9,11Z"/>
  <path class="cls-4" d="M260.4,60.9h0c-3.5,0-7.8.4-13,1.2-4.4.7-8.7,1.4-13,2v-2.6h-13v94.9h-21.3c-5.8,0-10.6,1.9-14.5,5.8-3.8,3.9-5.8,8.7-5.8,14.6v55.6c0,5.6,1.7,10.3,5.1,14,3.4,3.8,7.8,5.6,13.4,5.6s9.2-1.1,23.1-3.2v2.6h12.9v-94.9h0v-82.6l23.9-.8v19.6h12.8v-21.2c0-7.1-3.6-10.7-10.7-10.7ZM203.5,240.5c-7.2,0-10.7-3.6-10.7-10.9v-50.8c0-5.5,2-9,6.1-10.4-3.9,1.4-5.9,4.8-5.9,10.3v50.8c0,7.3,3.6,10.9,10.7,10.9s7.6-.3,17.8-1h0c-10.3.7-16.3,1-18,1Z"/>
  <path class="cls-4" d="M298.7,156.4h32.6c7.3,0,11-3.7,11-11v-72.9c0-7.4-3.7-11-11-11h-32.6c-7.3,0-10.9,3.7-10.9,11v72.9c0,7.4,3.6,11,10.9,11Z"/>
  <path class="cls-4" d="M148.3,156.4h-23.4V3.7h-12.8v152.8h2.8c-5.9.7-8.8,4.3-8.8,10.9v16h12.6v-16.2h27.9v28.6h-30.6c-7.4,0-11,3.6-11,10.9v34.7c0,7,3.5,10.5,10.6,10.5s8.9-.4,15.3-1.2c5.1-.6,10.3-1.3,15.4-2v2.6h12.8v-84c0-7.4-3.6-11-10.9-11ZM146.7,239.6l-29,.6v-34.2h0v34.1l29-.6h0Z"/>
  <path class="cls-4" d="M346.2,133.3v27.5s-62.3,0-62.3,0v-27.5s-12.6,0-12.6,0v27.7c0,7.4,3.6,11,11,11.1h26.2v9.9h-13.2v13.2h39.2v-13.2h-12.8v-9.8h26.1c7.4,0,11.1-3.6,11.1-11v-27.6s-12.6,0-12.6,0Z"/>
  <rect class="cls-2" x="76.3" y="24.2" width="13.2" height="16.4"/>
  <path class="cls-2" d="M89.3,61.4h-12.8v95h.1l-16.4,74.7-16.2-74.7h0c7.4,0,11-3.7,11-11v-18c0-4.4-1.6-7.8-4.8-10.3l-34.3-27.8v-16.6h26.3v18.8h12.6v-18.9c0-7.4-3.7-11-11-11H14.5c-7.4,0-11,3.7-11,11v15.8c0,4.2,1.6,7.6,4.9,10.2l34,27.8v18.9h-26.3v-21.4H3.2v21.6c0,7.4,3.7,11,11,11h16.4l23.6,95.1h11.8l23.5-95.2h-.3V61.4h0Z"/>
  <path class="cls-2" d="M195.7,111.2l4.4-4.6v-34.2c0-7.4-3.6-11-10.9-11h-31.2c-7.3,0-10.9,3.7-10.9,11v72.9c0,7.4,3.6,11,10.9,11h31.2c7.3,0,10.9-3.7,10.9-11v-17.2h-12.6v17.4h-27.9v-34.4h36.1ZM159.6,72.2h27.9v28.6h-27.9v-28.6Z"/>
  <rect class="cls-3" x="159.6" y="72.2" width="27.9" height="28.6"/>
  <path class="cls-2" d="M260.4,60.9c-3.4,0-7.8.4-13,1.2-4.4.7-8.7,1.4-13,2v-2.6h-13v94.9h-21.3c-5.8,0-10.6,1.9-14.4,5.8-3.9,3.9-5.8,8.7-5.8,14.6v55.6c0,5.6,1.7,10.3,5.1,14,3.4,3.8,7.9,5.6,13.4,5.6s9.2-1.1,23.1-3.2v2.6h12.9v-94.9h0v-82.6l23.9-.8v19.6h12.8v-21.2c0-7.1-3.6-10.7-10.7-10.7h0ZM221.5,239.6c-10.3.6-16.3,1-18,1-7.2,0-10.7-3.6-10.7-10.9v-50.8c0-7.4,3.6-11,10.7-11h18v71.8Z"/>
  <path class="cls-1" d="M221.7,167.7v71.8c-10.3.6-16.3,1-18,1-7.2,0-10.7-3.6-10.7-10.9v-50.8c0-7.4,3.6-11,10.7-11h18Z"/>
  <path class="cls-2" d="M331.4,61.4h-32.6c-7.3,0-10.9,3.7-10.9,11v72.9c0,7.4,3.6,11,10.9,11h32.6c7.4,0,11-3.7,11-11v-72.9c0-7.4-3.7-11-11-11ZM329.4,145h-28.6v-72.2h28.6v72.2h0Z"/>
  <rect class="cls-3" x="300.8" y="72.8" width="28.6" height="72.2"/>
  <path class="cls-2" d="M148.3,156.4h-23.4V3.7h-12.8v152.8h2.8c-5.9.7-8.8,4.3-8.8,10.9v16h12.6v-16.2h27.9v28.6h-30.6c-7.4,0-11,3.6-11,10.9v34.7c0,7,3.5,10.6,10.6,10.6s8.9-.4,15.3-1.2c5.1-.6,10.3-1.3,15.4-2.1v2.6h12.8v-84c0-7.4-3.6-11-10.9-11h0ZM146.7,239.6l-29,.6v-34.2h29v33.6Z"/>
  <polygon class="cls-1" points="146.7 205.9 146.7 239.5 117.6 240.1 117.6 205.9 146.7 205.9"/>
  <rect class="cls-2" x="303.9" y="108.9" width="22.5" height="3.3"/>
  <rect class="cls-2" x="303.9" y="101.9" width="22.5" height="3.3"/>
  <rect class="cls-2" x="303.9" y="94.9" width="22.5" height="3.3"/>
  <rect class="cls-2" x="303.9" y="87.9" width="22.5" height="3.3"/>
  <rect class="cls-2" x="303.9" y="80.9" width="22.5" height="2.6"/>
  <rect class="cls-2" x="303.9" y="115.9" width="22.5" height="3.3"/>
  <path class="cls-2" d="M358.9,133.4v27.6c0,7.4-3.7,11-11.1,11h-26.1s0,9.8,0,9.8h12.8v13.2h-39.2v-13.2h13.2v-9.9h-26.2c-7.4,0-11-3.7-11-11.1v-27.7s12.6,0,12.6,0v27.5s62.2,0,62.2,0v-27.5s12.7,0,12.7,0Z"/>
</svg>